HIERARCHY
ROOT pelvis
{
  OFFSET 0 100 0
  CHANNELS 6 Xposition Yposition Zposition Zrotation Xrotation Yrotation
  JOINT pelvis_right_femur
  {
    OFFSET -10.78128 -3.44521 -0.5502486
    CHANNELS 3 Zrotation Xrotation Yrotation
    JOINT right_femur_tibia
    {
      OFFSET -0.8047443 -44.0398 -0.1307829
      CHANNELS 3 Zrotation Xrotation Yrotation
      JOINT right_tibia_foot
      {
        OFFSET 3.006224 -47.83518 -5
        CHANNELS 3 Zrotation Xrotation Yrotation
        End Site
        {
          OFFSET 0 -5 15
        }
      }
    }
  }
  JOINT pelvis_left_femur
  {
    OFFSET 10.78128 -3.44521 -0.5502486
    CHANNELS 3 Zrotation Xrotation Yrotation
    JOINT left_femur_tibia
    {
      OFFSET 0.8047443 -44.0398 -0.1307829
      CHANNELS 3 Zrotation Xrotation Yrotation
      JOINT left_tibia_foot
      {
        OFFSET -4.370144 -48.10324 -4.275266
        CHANNELS 3 Zrotation Xrotation Yrotation
        End Site
        {
          OFFSET 0 -5 15
        }
      }
    }
  }
  JOINT pelvis_spine1
  {
    OFFSET 0 6.468898 -3.129235
    CHANNELS 3 Zrotation Xrotation Yrotation
    JOINT spine1
    {
      OFFSET 0 23.15396 4.99043
      CHANNELS 3 Zrotation Xrotation Yrotation
      JOINT spine2
      {
        OFFSET 0 20.79997 -5.064912
        CHANNELS 3 Zrotation Xrotation Yrotation
        JOINT neck
        {
          OFFSET 0 14.38658 9.616178
          CHANNELS 3 Zrotation Xrotation Yrotation
          End Site
          {
            OFFSET 0 20 0
          }
        }
      }
      JOINT right_manubrium
      {
        OFFSET -5.722621 16.35077 3.967754
        CHANNELS 3 Zrotation Xrotation Yrotation
        JOINT right_clavicle
        {
          OFFSET -13.16364 1.694482 -4.693211
          CHANNELS 3 Zrotation Xrotation Yrotation
          JOINT right_humerus
          {
            OFFSET -28.5034 -0.3100689 -2.792744
            CHANNELS 3 Zrotation Xrotation Yrotation
            JOINT right_radius
            {
              OFFSET -25.15693 0.02248979 -1.271978
              CHANNELS 3 Zrotation Xrotation Yrotation
              End Site
              {
                OFFSET -15 0 0
              }
            }
          }
        }
      }
      JOINT left_manubrium
      {
        OFFSET 5.722621 16.35077 3.967754
        CHANNELS 3 Zrotation Xrotation Yrotation
        JOINT left_clavicle
        {
          OFFSET 13.16364 1.694482 -4.693211
          CHANNELS 3 Zrotation Xrotation Yrotation
          JOINT left_humerus
          {
            OFFSET 29.39168 -1.063119 -2.237045
            CHANNELS 3 Zrotation Xrotation Yrotation
            JOINT left_radius
            {
              OFFSET 24.59957 -0.9528479 0.9047498
              CHANNELS 3 Zrotation Xrotation Yrotation
              End Site
              {
                OFFSET 15 -0 -0
              }
            }
          }
        }
      }
    }
  }
}
MOTION
Frames: 7
Frame Time: 0.0416666666667
0 103.5113 0 0.7224601 -1.508591 -0.3176256 3.575353 -15.48232 9.92316 -0 42.24292 -0 -7.076466 -16.18551 -2.607305 -6.845399 9.685785 -22.93024 -0 6.900409 -0 12.92048 -12.3638 29.01112 -3.722485 -3.866187 4.568263 2.611948 10.99183 -7.743426 1.001193 21.80248 7.013471 3.72308 -23.9691 8.89734 7.766939 -20.23199 12.45188 84.65838 37.78821 -17.44529 -0 0 16.75535 -8.104119 7.680749 4.578713 5.594292 -19.79778 -2.24956 -92.7727 20.23601 21.05367 0 0 -11.69739 14.27831 15.24587 -3.592185
0.3690064 103.9585 1.436663 0.7197986 -1.601505 -0.6023119 3.421549 -16.13987 9.331023 -0 41.54313 -0 -7.233512 -15.67464 -2.587811 -6.761132 9.980421 -22.49365 -0 6.62761 -0 12.64507 -12.68768 28.44402 -3.725971 -3.67901 4.395401 2.572735 10.89907 -7.73217 0.996376 21.89305 7.000388 3.704405 -23.77089 8.836036 7.534514 -19.98268 12.35434 84.91246 37.47998 -17.56376 -0 0 16.25799 -8.451225 7.66092 4.712243 5.700723 -19.9781 -2.363973 -92.19422 20.0418 20.22315 0 0 -12.15873 14.55473 15.16114 -3.969673
0.8168289 104.1213 3.007653 0.5606256 0.01421921 -0.8797669 4.61195 -19.62523 9.990742 -0 35.87403 -0 -5.686221 -14.82926 -2.199054 -7.01864 9.315477 -22.37425 -0 6.158023 -0 11.62254 -15.99803 28.38132 -3.59968 -3.621936 5.446342 2.637813 10.56331 -7.767216 1.309965 20.83077 7.11595 3.929473 -25.0444 9.314486 7.394783 -20.49472 12.1738 84.52435 36.90729 -18.05313 -0 0 17.84426 -7.761002 8.406361 3.927104 6.853203 -20.42751 -1.328916 -93.52873 20.73669 21.81632 0 0 -13.78583 13.63842 15.39675 -2.56278
1.282834 104.0122 4.859903 0.3668678 1.214825 -1.021042 5.444699 -23.03663 9.749374 -0 31.30622 -0 -5.025181 -13.01191 -1.845352 -7.033944 9.299925 -21.70807 -0 5.748167 -0 10.24302 -18.7806 27.34246 -3.444936 -3.343023 5.864356 2.660943 10.19887 -7.826144 1.48093 20.14914 7.233775 4.127619 -25.84397 9.55126 7.070588 -20.51335 11.93298 84.58801 36.27844 -18.64722 -0 0 18.2697 -7.681358 8.858966 3.574309 7.739199 -20.95335 -0.7194316 -93.90613 21.1954 22.16698 0 0 -15.44801 13.03529 15.53927 -1.64166
1.72551 103.6638 7.122938 0.1005283 2.329378 -0.9697718 6.162108 -26.68173 8.991292 -0 26.83046 -0 -4.861699 -10.57371 -1.496622 -6.880455 9.769572 -20.66654 -0 5.565702 -0 8.406639 -21.38712 25.534 -3.229046 -2.953274 5.918894 2.695344 9.76702 -7.940908 1.573245 19.6269 7.357609 4.31444 -26.46106 9.656964 6.611811 -20.21822 11.63011 84.93342 35.58948 -19.41427 -0 0 18.01361 -7.890256 9.16718 3.429057 8.510948 -21.54705 -0.2941733 -93.7695 21.62684 21.83273 0 0 -17.28184 12.47826 15.64802 -0.8396023
2.103395 103.1224 9.907642 -0.2402308 3.248806 -0.700183 6.69751 -30.12486 7.811473 -0 22.72613 -0 -5.192977 -7.880143 -1.185809 -6.565827 10.72579 -19.34053 -0 5.917595 -0 6.22107 -23.42794 23.09659 -2.938938 -2.523583 5.606967 2.753537 9.307732 -8.114204 1.581323 19.3095 7.462427 4.45594 -26.83331 9.616846 6.052989 -19.62284 11.29369 85.53173 34.87616 -20.30114 -0 0 17.09126 -8.336769 9.312547 3.48367 9.072064 -22.13317 -0.09214747 -93.14279 21.97722 20.83511 0 0 -19.09278 11.99889 15.69546 -0.2274641
2.384873 102.4642 13.30997 -0.6655677 3.910773 -0.2234715 7.080018 -32.99874 6.380852 -0 19.19387 -0 -5.945728 -5.224412 -0.9308102 -6.111382 12.06859 -17.82573 -0 7.183409 -0 3.787539 -24.62049 20.22405 -2.543908 -2.112217 4.983677 2.839112 8.862315 -8.336192 1.515277 19.19007 7.532179 4.536478 -26.95588 9.440546 5.439361 -18.78103 10.95507 86.31918 34.15463 -21.24391 -0 0 15.63049 -8.943183 9.320104 3.693982 9.36174 -22.63969 -0.114482 -92.16387 22.21859 19.34295 0 0 -20.69062 11.56061 15.65826 0.2286574
